<?xml version="1.0" encoding="UTF-8"?>
<svg width="28px" height="28px" viewBox="0 0 28 28" version="1.1" xmlns="http://www.w3.org/2000/svg" xmlns:xlink="http://www.w3.org/1999/xlink">
    <!-- Generator: Sketch 46.2 (44496) - http://www.bohemiancoding.com/sketch -->
    <title>删除-2</title>
    <desc>Created with Sketch.</desc>
    <defs></defs>
    <g id="学讯通" stroke="none" stroke-width="1" fill="none" fill-rule="evenodd">
        <g id="添加留言-2-老师" transform="translate(-197.000000, -333.000000)" fill-rule="nonzero" fill="#B8C1CE">
            <g id="删除-2" transform="translate(197.000000, 333.000000)">
                <path d="M14,0 C6.25882354,0 0,6.25882354 0,14 C0,21.7411765 6.25882354,28 14,28 C21.7411765,28 28,21.7411765 28,14 C28,6.25882354 21.7411765,0 14,0 Z M20.0941176,17.6235294 C20.7529412,18.2823529 20.7529412,19.4352941 20.0941176,20.0941176 C19.4352941,20.7529412 18.2823529,20.7529412 17.6235294,20.0941176 L14,16.4705882 L10.3764706,20.2588235 C9.71764705,20.9176471 8.56470587,20.9176471 7.90588236,20.2588235 C7.57647059,19.7647059 7.41176472,19.4352941 7.41176472,18.9411765 C7.41176472,18.4470588 7.57647059,17.9529412 7.90588236,17.6235294 L11.5294118,14 L7.90588236,10.5411765 C7.57647059,10.0470588 7.41176472,9.71764705 7.41176472,9.22352941 C7.41176472,8.72941177 7.57647059,8.23529413 7.90588236,7.90588236 C8.5647059,7.24705882 9.71764708,7.24705882 10.3764706,7.90588236 L14,11.5294118 L17.6235294,7.90588236 C18.2823529,7.24705882 19.4352941,7.24705882 20.0941176,7.90588236 C20.7529412,8.5647059 20.7529412,9.71764708 20.0941176,10.3764706 L16.4705882,14 L20.0941176,17.6235294 L20.0941176,17.6235294 Z" id="Shape"></path>
            </g>
        </g>
    </g>
</svg>