<?xml version="1.0" encoding="UTF-8"?>
<svg width="40px" height="40px" viewBox="0 0 40 40" version="1.1" xmlns="http://www.w3.org/2000/svg" xmlns:xlink="http://www.w3.org/1999/xlink">
    <!-- Generator: Sketch 46.2 (44496) - http://www.bohemiancoding.com/sketch -->
    <title>tupian</title>
    <desc>Created with Sketch.</desc>
    <defs></defs>
    <g id="学讯通" stroke="none" stroke-width="1" fill="none" fill-rule="evenodd">
        <g id="添加留言-2" transform="translate(-569.000000, -747.000000)" fill-rule="nonzero" fill="#203152">
            <g id="Group-2" transform="translate(0.000000, 720.000000)">
                <g id="tupian" transform="translate(569.000000, 27.000000)">
                    <path d="M34.7618922,0 L5.23810778,0 C2.34982036,0 6.36245939e-16,2.34982036 6.36245939e-16,5.23810778 L0,34.7618922 C0,37.6501796 2.34982036,40 5.23810778,40 L34.7618922,40 C37.6501796,40 40,37.6501796 40,34.7618922 L40,5.23810778 C40,2.34982036 37.6502255,0 34.7618922,0 Z M5.23810778,1.90477067 L34.7618922,1.90477067 C36.5998642,1.90477067 38.0952294,3.40009008 38.0952294,5.23810783 L38.0952294,11.3520207 C31.3752261,11.5876029 25.0948205,14.3107262 20.3217837,19.083763 C18.0849438,21.3206487 16.2994304,23.8891912 15.0076225,26.6781969 C11.269324,23.506771 5.8574847,23.3034427 1.90477062,26.0685328 L1.90477067,5.23810778 C1.90477067,3.40009003 3.40009003,1.90477067 5.23810778,1.90477067 Z M1.90477067,34.7618922 L1.90477067,28.5347698 C5.33170844,25.2077093 10.8069104,25.2111455 14.2292208,28.5457196 C13.1411077,31.469239 12.5714862,34.5949413 12.5714862,37.8095252 C12.5714862,37.9090818 12.5868801,38.0050191 12.6152398,38.0952293 L5.23810778,38.0952294 C3.40009003,38.0952294 1.90477067,36.59991 1.90477067,34.7618922 Z M34.7618922,38.0952294 L14.4325032,38.0952294 C14.4608629,38.0050191 14.4762568,37.9090819 14.4762568,37.8095253 C14.4762568,31.2407124 17.0306424,25.0687058 21.6687532,20.430595 C26.0819567,16.0173915 31.8841881,13.4926026 38.0952752,13.2579367 L38.0952752,34.7618922 C38.0952294,36.59991 36.59991,38.0952294 34.7618922,38.0952294 Z M11.0634759,15.5881481 C13.7872865,15.5881481 16.0032804,13.3722 16.0032804,10.6483436 C16.0032804,7.92448729 13.7873323,5.70853921 11.0634759,5.70853921 C8.3396196,5.70853921 6.12367152,7.92448729 6.12367152,10.6483436 C6.12367152,13.3722 8.3396196,15.5881481 11.0634759,15.5881481 Z M11.0634759,7.61335564 C12.736971,7.61335564 14.0985097,8.97484856 14.0985097,10.6483894 C14.0985097,12.3219303 12.7370168,13.6834232 11.0634759,13.6834232 C9.38993507,13.6834232 8.02844215,12.3219303 8.02844215,10.6483894 C8.02844215,8.97484856 9.38993507,7.61335564 11.0634759,7.61335564 Z" id="Shape"></path>
                </g>
            </g>
        </g>
    </g>
</svg>