<?xml version="1.0" encoding="UTF-8"?>
<svg width="90px" height="90px" viewBox="0 0 90 90" version="1.1" xmlns="http://www.w3.org/2000/svg" xmlns:xlink="http://www.w3.org/1999/xlink">
    <!-- Generator: Sketch 46.2 (44496) - http://www.bohemiancoding.com/sketch -->
    <title>Group 7</title>
    <desc>Created with Sketch.</desc>
    <defs></defs>
    <g id="学讯通" stroke="none" stroke-width="1" fill="none" fill-rule="evenodd">
        <g id="添加留言-2-老师" transform="translate(-460.000000, -394.000000)">
            <g id="Group-7" transform="translate(460.000000, 394.000000)">
                <circle id="Oval-5" fill="#FFFFFF" opacity="0.3" cx="45" cy="45" r="45"></circle>
                <circle id="Oval-5" fill="#FFFFFF" opacity="0.7" cx="45" cy="45" r="35.5263158"></circle>
                <g id="播放" transform="translate(35.526316, 26.842105)" fill-rule="nonzero" fill="#4682F7">
                    <path d="M28.3480786,16.6337325 L28.348989,16.6328408 L4.67131404,0.730747858 L4.66391707,0.73758394 C4.1733278,0.28131181 3.50779091,0.000511776702 2.77427782,0.000511776702 C1.26541138,0.000511776702 0.0422952852,1.18661128 0.0422952852,2.65076152 C0.0422952852,3.45489425 0.00690365582,5.02931366 0.0422952852,4.99517036 L0.0422952852,18.5528545 L0.0422952852,32.8239073 L0.0422952852,34.4553561 C0.0422952852,35.9186147 1.26541138,37.1047513 2.77427782,37.1047513 C3.51056001,37.1047513 4.17890397,36.8221309 4.66945532,36.3616976 L4.67131404,36.3626264 L28.3489891,20.4610165 L28.3480787,20.4596047 C28.8628313,19.9778086 29.1839733,19.3018155 29.1839733,18.5523715 L29.1839733,18.54691 L29.1839733,18.5414857 C29.1839733,17.7919675 28.8628313,17.1154914 28.3480786,16.6337325 Z" id="Shape"></path>
                </g>
            </g>
        </g>
    </g>
</svg>