<?xml version="1.0" encoding="UTF-8"?>
<svg width="40px" height="40px" viewBox="0 0 40 40" version="1.1" xmlns="http://www.w3.org/2000/svg" xmlns:xlink="http://www.w3.org/1999/xlink">
    <!-- Generator: Sketch 46.2 (44496) - http://www.bohemiancoding.com/sketch -->
    <title>Group</title>
    <desc>Created with Sketch.</desc>
    <defs></defs>
    <g id="学讯通" stroke="none" stroke-width="1" fill="none" fill-rule="evenodd">
        <g id="添加留言-2" transform="translate(-669.000000, -747.000000)" fill="#203152">
            <g id="Group-2" transform="translate(0.000000, 720.000000)">
                <g id="Group" transform="translate(669.000000, 27.000000)">
                    <g id="shipin" transform="translate(13.658537, 12.682927)" fill-rule="nonzero">
                        <path d="M11.9985919,4.49652541 L5.11828045,0.490530045 C4.61484303,0.163510015 4.02749937,0 3.35624948,0 C1.51031226,0 0,1.47159013 0,3.2702003 L0,11.363946 C0,11.9362311 0.167812474,12.5085161 0.503437421,13.0808012 C0.922968606,13.8165963 1.67812474,14.3888813 2.60109334,14.5523913 C2.85281205,14.6341463 3.188437,14.6341463 3.44015571,14.6341463 C4.02749937,14.6341463 4.61484303,14.4706363 5.20218669,14.1436163 L12.0824981,10.1376209 C12.5859355,9.89235591 12.9215605,9.48358087 13.2571854,8.99305082 C14.0962478,7.43970568 13.5928104,5.39583049 11.9985919,4.49652541 Z M11.2465999,7.28819741 L2.34621049,12.4703638 L2.34621049,2.00027252 L11.2465999,7.28819741 Z" id="Shape"></path>
                    </g>
                    <path d="M37.804878,30.2439024 L37.804878,9.75609756 L2.19512195,9.75609756 L2.19512195,30.2439024 L37.804878,30.2439024 Z M37.804878,32.195122 L2.19512195,32.195122 L2.19512195,33.1416845 C2.19512195,36.7973514 3.61280488,37.804878 6.85831547,37.804878 L33.1416845,37.804878 C36.6973133,37.804878 37.804878,36.6191883 37.804878,33.1416845 L37.804878,32.195122 Z M37.804878,7.80487805 L37.804878,6.85831547 C37.804878,3.81002287 36.7816311,2.19512195 33.1416845,2.19512195 L6.85831547,2.19512195 C3.62137957,2.19512195 2.19512195,3.61899771 2.19512195,6.85831547 L2.19512195,7.80487805 L37.804878,7.80487805 Z M34.7618922,0 C37.6502255,0 40,2.34982036 40,5.23810778 L40,34.7618922 C40,37.6501796 37.6501796,40 34.7618922,40 L5.23810778,40 C2.34982036,40 0,37.6501796 0,34.7618922 L6.36245939e-16,5.23810778 C6.36245939e-16,2.34982036 2.34982036,0 5.23810778,0 L34.7618922,0 Z" id="Combined-Shape"></path>
                </g>
            </g>
        </g>
    </g>
</svg>